<?xml version="1.0" encoding="UTF-8"?>
<svg version="1.1" xmlns="http://www.w3.org/2000/svg" width="512" height="512">
<path d="M0 0 C0.77472656 0.69222656 1.54945313 1.38445312 2.34765625 2.09765625 C16.74793817 15.70752819 26.63700281 33.87756716 27.28125 53.875 C27.41859289 64.59785674 27.05236462 75.32601596 26 86 C26.83660156 86.02578125 27.67320312 86.0515625 28.53515625 86.078125 C49.09972948 87.08016401 66.90068039 93.83064274 81 109 C91.30245476 121.3288567 96.61059394 136.24494348 96.4375 152.25 C96.42920166 153.25216553 96.42090332 154.25433105 96.41235352 155.28686523 C96.00189831 173.45936786 89.15301918 189.50746969 77 203 C76.47019531 203.61101562 75.94039063 204.22203125 75.39453125 204.8515625 C60.82958058 220.60328693 38.20726584 229.38485719 18 234.8125 C17.18619873 235.03188232 16.37239746 235.25126465 15.53393555 235.47729492 C11.61063213 236.48843035 8.088553 237.28850676 4 237 C4 237.66 4 238.32 4 239 C4.6909375 239.09410156 5.381875 239.18820312 6.09375 239.28515625 C19.2408353 242.51891513 35.33203331 255.05831687 43 266 C47.47886834 273.5244988 48.82591023 280.24069853 48 289 C44.17821738 303.87219407 32.50330049 312.87411621 19.9375 320.5625 C-52.47084895 363.21676422 -154.9511845 364.61815709 -328.96142578 343.8046875 C-358.5055671 335.98068864 -397.28384033 324.4396369 -413.9375 296.4375 C-417.41323897 288.89514643 -417.40892538 280.59956573 -414.99609375 272.72265625 C-403.69725587 247.7106989 -371.43259079 237.09901238 -347.62890625 228.10400391 C-345.75362327 227.39994885 -343.87696554 226.69955711 -342 226 C-342.66644531 225.13761719 -343.33289063 224.27523438 -344.01953125 223.38671875 C-373.36819761 184.78590684 -389.0040233 137.92929209 -394 90 C-394.0942627 89.10531006 -394.18852539 88.21062012 -394.28564453 87.28881836 C-395.03295851 79.39656776 -395.21866719 71.52130115 -395.24023438 63.59985352 C-395.25000393 61.43662953 -395.28118401 59.27433359 -395.3125 57.11132812 C-395.40164877 45.69081596 -393.52681293 36.06056623 -388.25 25.875 C-387.90146973 25.19123291 -387.55293945 24.50746582 -387.19384766 23.80297852 C-384.34970112 18.36943327 -381.04261744 13.61876245 -377 9 C-376.50886719 8.39027344 -376.01773438 7.78054687 -375.51171875 7.15234375 C-341.51590115 -34.5406401 -274.94158613 -49.06913262 -224.62060547 -54.35498047 C-149.36511061 -61.61619166 -58.56562253 -52.41094298 0 0 Z M19 125 C18.86013672 125.58152832 18.72027344 126.16305664 18.57617188 126.76220703 C12.9744742 149.77689902 5.80164917 173.3750809 -6.265625 193.94140625 C-8.16442161 196.70394086 -8.16442161 196.70394086 -8 199 C-1.18720073 198.52596446 5.09668618 197.4353386 11.625 195.4375 C12.48528809 195.17428955 13.34557617 194.9110791 14.23193359 194.63989258 C29.93454179 189.63147709 45.55174859 181.94476157 54 167 C57.48403075 158.83968462 58.39511236 151.19570192 55.3125 142.8125 C52.19391459 135.7793266 48.12654524 131.09914888 41 128 C33.83342743 125.61114248 26.50672299 125.40063971 19 125 Z " fill="#EAE4DC" transform="translate(416,104)"/>
<path d="M0 0 C0.77472656 0.69222656 1.54945313 1.38445312 2.34765625 2.09765625 C16.27224426 15.2579444 25.4284478 32.37178646 27.3515625 51.49609375 C27.90883806 72.59657306 17.36746829 90.46467839 3.47412109 105.51782227 C-12.39784134 122.07812327 -33.24997928 132.85083202 -54 142 C-55.09634766 142.48678223 -55.09634766 142.48678223 -56.21484375 142.98339844 C-76.32458159 151.75566303 -98.32862048 157.33199006 -119.99560547 160.546875 C-122.07834652 160.86099554 -124.1580364 161.1957737 -126.23486328 161.546875 C-145.76564543 164.81350109 -165.09486338 165.39947274 -184.875 165.4375 C-186.6623204 165.44662415 -186.6623204 165.44662415 -188.48574829 165.45593262 C-210.41829425 165.52915496 -232.19932015 163.90653902 -253.75 159.6875 C-254.85158447 159.47657715 -255.95316895 159.2656543 -257.08813477 159.04833984 C-298.30079898 150.93423592 -339.00772238 136.20229459 -370 107 C-370.76054687 106.31550781 -371.52109375 105.63101563 -372.3046875 104.92578125 C-384.48282561 93.52721253 -394.60028364 76.39015328 -395.30078125 59.44921875 C-395.54169483 40.13798791 -389.85223 23.68390173 -377 9 C-376.50886719 8.39027344 -376.01773438 7.78054687 -375.51171875 7.15234375 C-341.51590115 -34.5406401 -274.94158613 -49.06913262 -224.62060547 -54.35498047 C-149.36511061 -61.61619166 -58.56562253 -52.41094298 0 0 Z " fill="#EABC6B" transform="translate(416,104)"/>
<path d="M0 0 C20.11678657 0.57068898 38.81028115 5.62343895 53.375 20.17578125 C65.2603955 32.96319337 71.6262305 48.79911639 71.4375 66.25 C71.42920166 67.25216553 71.42090332 68.25433105 71.41235352 69.28686523 C71.00189831 87.45936786 64.15301918 103.50746969 52 117 C51.47019531 117.61101562 50.94039063 118.22203125 50.39453125 118.8515625 C35.82958058 134.60328693 13.20726584 143.38485719 -7 148.8125 C-7.81380127 149.03188232 -8.62760254 149.25126465 -9.46606445 149.47729492 C-13.38936787 150.48843035 -16.911447 151.28850676 -21 151 C-21 151.66 -21 152.32 -21 153 C-20.3090625 153.09410156 -19.618125 153.18820312 -18.90625 153.28515625 C-5.7591647 156.51891513 10.33203331 169.05831687 18 180 C22.47886834 187.5244988 23.82591023 194.24069853 23 203 C19.17821738 217.87219407 7.50330049 226.87411621 -5.0625 234.5625 C-77.47084895 277.21676422 -179.9511845 278.61815709 -353.96142578 257.8046875 C-383.5055671 249.98068864 -422.28384033 238.4396369 -438.9375 210.4375 C-442.41323897 202.89514643 -442.40892538 194.59956573 -439.99609375 186.72265625 C-430.3238094 165.31136012 -405.12221425 154.99874526 -384.625 146.625 C-383.41336182 146.12407837 -383.41336182 146.12407837 -382.17724609 145.61303711 C-379.80373286 144.66989195 -377.42007162 143.81582874 -375 143 C-374.15252197 142.69731201 -373.30504395 142.39462402 -372.43188477 142.08276367 C-369.80498859 141.31732202 -367.73525594 140.86437689 -365 141 C-361.88356853 142.78980095 -359.90888569 145.27576026 -357.6875 148.0625 C-356.39382049 149.55762998 -355.09821606 151.05109636 -353.80078125 152.54296875 C-352.84486084 153.6729126 -352.84486084 153.6729126 -351.86962891 154.82568359 C-323.98557125 187.25391779 -280.29845203 210.27947048 -237.80078125 214.67578125 C-235 215 -235 215 -232 216 C-230.65527396 216.10964709 -229.30599967 216.16848225 -227.95703125 216.19287109 C-227.14248978 216.20869232 -226.3279483 216.22451355 -225.48872375 216.24081421 C-224.60556992 216.2515799 -223.72241608 216.26234558 -222.8125 216.2734375 C-221.89079514 216.28605621 -220.96909027 216.29867493 -220.01945496 216.31167603 C-199.52780272 216.53728244 -179.89734279 216.50674185 -160 211 C-158.99888184 210.72655762 -157.99776367 210.45311523 -156.96630859 210.17138672 C-135.25791799 204.02710894 -114.14351498 194.48687847 -96 181 C-95.4445752 180.59571777 -94.88915039 180.19143555 -94.31689453 179.77490234 C-86.0276881 173.72524431 -78.41851654 167.08131124 -71 160 C-70.14664062 159.19949219 -69.29328125 158.39898437 -68.4140625 157.57421875 C-59.55926309 149.04065023 -52.23184386 139.33838224 -45.25 129.25 C-44.51007813 128.19425781 -43.77015625 127.13851562 -43.0078125 126.05078125 C-40.97548747 123.09416139 -40.97548747 123.09416139 -39.5546875 120.10546875 C-37.66395894 116.57714196 -36.04687846 113.77014477 -32.14941406 112.30371094 C-28.20942646 111.27065445 -24.21482288 110.63859765 -20.19921875 109.9765625 C-3.59780274 107.139513 14.37020198 99.36876439 25 86 C29.69862335 78.43938545 32.02915352 70.92402981 31 62 C28.92006332 54.7471638 26.11562964 49.09705841 19.75 44.8125 C12.9722119 41.25881829 6.05809569 40.71246416 -1.4609375 40.24609375 C-4 40 -4 40 -6 39 C-5.88027832 38.29907227 -5.76055664 37.59814453 -5.63720703 36.87597656 C-4.2808587 28.84818017 -3.05574594 20.80531116 -1.875 12.75 C-1.69324219 11.51636719 -1.51148438 10.28273437 -1.32421875 9.01171875 C-0.88180456 6.00795925 -0.44041496 3.00405316 0 0 Z " fill="#D8CBBB" transform="translate(441,190)"/>
<path d="M0 0 C0.33 0 0.66 0 1 0 C1.17015625 1.03898437 1.3403125 2.07796875 1.515625 3.1484375 C3.37418357 14.04082018 5.45828989 23.47511981 12.6328125 32.2109375 C14 34 14 34 14.9296875 36.1015625 C16.29228097 38.51842538 17.52653883 38.78817003 20 40 C21.53873373 41.07795109 23.06241602 42.17756185 24.57421875 43.29296875 C29.74158588 46.94802796 35.07167221 49.67905174 40.8125 52.3125 C41.8015332 52.77760986 42.79056641 53.24271973 43.80957031 53.72192383 C47.84023942 55.61574839 51.88088309 57.48698591 55.92919922 59.34277344 C76.1603703 68.61727223 76.1603703 68.61727223 85 76 C85.65484375 76.52980469 86.3096875 77.05960937 86.984375 77.60546875 C88.34048568 78.71586213 89.67431098 79.85345814 91 81 C92.03125 80.195625 93.0625 79.39125 94.125 78.5625 C107.38342613 68.67683139 121.49000529 61.28155425 136.59008789 54.64453125 C155.08424982 46.49520978 169.33714418 38.12547392 178 19 C179.61320503 14.73371909 180.48054211 10.6362052 181.125 6.125 C181.29257812 4.97257812 181.46015625 3.82015625 181.6328125 2.6328125 C181.75398437 1.76398438 181.87515625 0.89515625 182 0 C185.99552682 3.74535967 189.06091893 7.67893836 192.0625 12.25 C192.50078125 12.91314209 192.9390625 13.57628418 193.390625 14.25952148 C196.45449749 18.97551591 199.11473758 23.68233047 201 29 C201.350625 29.89203125 201.70125 30.7840625 202.0625 31.703125 C204.52565488 40.36521968 204.63836202 51.12184493 200.4375 59.1875 C198.7421875 61.7578125 198.7421875 61.7578125 197 64 C196.52820313 64.61617188 196.05640625 65.23234375 195.5703125 65.8671875 C182.38157068 80.69598012 161.12957527 87.69350576 143.41796875 95.234375 C115.55867793 106.69002456 115.55867793 106.69002456 92 125 C91.154375 124.21625 90.30875 123.4325 89.4375 122.625 C73.84116408 109.39457532 55.49315275 101.88501318 36.875 93.9375 C32.24833723 91.96218893 27.62265266 89.98467966 23 88 C21.6706543 87.42934814 21.6706543 87.42934814 20.31445312 86.84716797 C6.40159594 80.8078522 -6.83432598 73.48189779 -16 61 C-16.67675781 60.13761719 -16.67675781 60.13761719 -17.3671875 59.2578125 C-22.03907168 52.00833705 -20.84827451 41.27192092 -19.52734375 33.0625 C-16.45087913 21.56720707 -8.46311828 8.46311828 0 0 Z " fill="#FEFEFD" transform="translate(141,121)"/>
<path d="M0 0 C20.11678657 0.57068898 38.81028115 5.62343895 53.375 20.17578125 C65.2603955 32.96319337 71.6262305 48.79911639 71.4375 66.25 C71.42920166 67.25216553 71.42090332 68.25433105 71.41235352 69.28686523 C71.00189831 87.45936786 64.15301918 103.50746969 52 117 C51.47019531 117.61101562 50.94039063 118.22203125 50.39453125 118.8515625 C41.03635522 128.97225658 28.37945887 135.37238587 16 141 C14.989375 141.46148437 13.97875 141.92296875 12.9375 142.3984375 C-11.93444709 152.78379838 -39.35287294 154.89604759 -66 156 C-62.97079351 151.788944 -59.85612738 147.79204662 -56.3125 144 C-52.62825039 139.92756317 -49.52658547 135.58874796 -46.4375 131.0625 C-45.95643799 130.36930664 -45.47537598 129.67611328 -44.97973633 128.96191406 C-42.93488798 125.98720597 -41.05464711 123.10701167 -39.41015625 119.88671875 C-37.55054945 116.40961463 -35.99954203 113.74161169 -32.15820312 112.31689453 C-28.21455324 111.28065289 -24.21931936 110.6383122 -20.19921875 109.9765625 C-3.59780274 107.139513 14.37020198 99.36876439 25 86 C29.69862335 78.43938545 32.02915352 70.92402981 31 62 C28.92006332 54.7471638 26.11562964 49.09705841 19.75 44.8125 C12.9722119 41.25881829 6.05809569 40.71246416 -1.4609375 40.24609375 C-4 40 -4 40 -6 39 C-5.82041748 37.9486084 -5.82041748 37.9486084 -5.63720703 36.87597656 C-4.2808587 28.84818017 -3.05574594 20.80531116 -1.875 12.75 C-1.69324219 11.51636719 -1.51148438 10.28273437 -1.32421875 9.01171875 C-0.88180456 6.00795925 -0.44041496 3.00405316 0 0 Z " fill="#D4CEC7" transform="translate(441,190)"/>
<path d="M0 0 C1.53295898 1.28417969 1.53295898 1.28417969 2.99609375 2.921875 C3.82379272 3.83223511 3.82379272 3.83223511 4.66821289 4.76098633 C5.25207764 5.41736084 5.83594238 6.07373535 6.4375 6.75 C7.69365719 8.12521175 8.95150493 9.49888099 10.2109375 10.87109375 C10.84483398 11.56444824 11.47873047 12.25780273 12.13183594 12.97216797 C41.46248817 44.80964803 82.71945258 68.17787441 126.19921875 72.67578125 C129 73 129 73 132 74 C133.34472604 74.10964709 134.69400033 74.16848225 136.04296875 74.19287109 C136.85751022 74.20869232 137.6720517 74.22451355 138.51127625 74.24081421 C139.39443008 74.2515799 140.27758392 74.26234558 141.1875 74.2734375 C142.5700573 74.29236557 142.5700573 74.29236557 143.98054504 74.31167603 C164.47219728 74.53728244 184.10265721 74.50674185 204 69 C205.00111816 68.72655762 206.00223633 68.45311523 207.03369141 68.17138672 C228.74208201 62.02710894 249.85648502 52.48687847 268 39 C268.83313721 38.39357666 268.83313721 38.39357666 269.68310547 37.77490234 C278.76396243 31.14747911 287.38657172 23.88849645 295.15234375 15.7421875 C298.24773157 12.82349201 301.43913809 12.79811723 305.515625 12.5 C307.14564453 12.37625 307.14564453 12.37625 308.80859375 12.25 C309.94425781 12.1675 311.07992188 12.085 312.25 12 C322.15530111 11.27098085 322.15530111 11.27098085 332 10 C343.40330917 8.29038487 352.7400005 13.826667 362 20 C362 20.66 362 21.32 362 22 C352.56429161 24.49507994 343.18697338 26.39420539 333.5 27.625 C332.52530762 27.75011963 331.55061523 27.87523926 330.54638672 28.00415039 C326.04643002 28.56260771 321.55799727 29.05484469 317.03515625 29.3828125 C308.1818463 30.06710351 303.13422462 31.27408836 297 38 C295.02022575 39.78345586 293.03317259 41.53008928 291 43.25 C290.44965088 43.71704346 289.89930176 44.18408691 289.33227539 44.6652832 C277.86731616 54.24465476 265.21654094 62.08827207 252 69 C251.04915527 69.50394287 251.04915527 69.50394287 250.07910156 70.01806641 C201.75381938 95.28965074 143.68330291 98.63029484 91.89990234 83.06835938 C79.35031581 79.11528993 67.53245166 74.31715804 56 68 C54.65245655 67.28234024 53.30479807 66.56489643 51.95703125 65.84765625 C24.58928173 51.07220896 0.88974925 29.61223211 -18 5 C-15.53031367 2.53031367 -13.42511413 1.93002031 -10.125 0.8125 C-9.07570313 0.44769531 -8.02640625 0.08289063 -6.9453125 -0.29296875 C-3.90758686 -1.02218406 -2.85537413 -1.03600838 0 0 Z " fill="#C3B8A9" transform="translate(77,332)"/>
<path d="M0 0 C4.27857132 3.13238524 7.47348865 6.35826324 9.00390625 11.49609375 C9.04515625 12.17671875 9.08640625 12.85734375 9.12890625 13.55859375 C9.78890625 13.55859375 10.44890625 13.55859375 11.12890625 13.55859375 C11.22171875 12.25921875 11.22171875 12.25921875 11.31640625 10.93359375 C12.56009722 5.7674928 15.01861856 3.05583697 19.2265625 0.0703125 C26.90964787 -4.36463922 34.59695966 -4.78334942 43.15625 -2.70703125 C51.48580087 0.0809117 58.17927696 3.71669536 62.24609375 11.76953125 C64.51191521 18.92792294 64.43349011 27.41178695 61.50390625 34.37109375 C60.74421978 35.78458704 59.9511289 37.18053834 59.12890625 38.55859375 C58.70480469 39.35523438 58.28070313 40.151875 57.84375 40.97265625 C50.92343625 53.42536567 40.4530297 62.08427551 29.3515625 70.71875 C20.80450528 77.38931045 15.4776654 84.13187993 10.12890625 93.55859375 C7.4873931 90.10189553 5.10198753 86.51731838 2.7265625 82.875 C-0.83099818 77.71697192 -4.53277949 74.04351125 -9.49609375 70.30859375 C-25.3271996 58.10896654 -41.38849696 44.38495275 -44.15234375 23.42578125 C-44.6556276 16.20365806 -41.95966379 10.21941154 -37.33203125 4.734375 C-27.3228803 -4.68181677 -11.97675874 -6.96506727 0 0 Z " fill="#FEFEFE" transform="translate(221.87109375,75.44140625)"/>
<path d="M0 0 C-1.01815796 0.46672119 -1.01815796 0.46672119 -2.05688477 0.94287109 C-19.64245692 9.05470929 -35.09991113 17.58325927 -50 30 C-51.010625 30.763125 -52.02125 31.52625 -53.0625 32.3125 C-66.49344035 44.6003816 -77.28320549 61.55133903 -78.40625 80.04296875 C-79.03391867 99.9878434 -73.14448255 115.98150487 -60 131 C-59.22269531 131.99193359 -59.22269531 131.99193359 -58.4296875 133.00390625 C-33.85517028 163.56769023 12.14802443 178.58455941 48.83837891 186.52783203 C50.29311416 186.84559327 51.74592858 187.1722649 53.19677734 187.50732422 C68.96531942 191.14779621 84.89241943 192.66182452 101 194 C101.85803223 194.07347656 102.71606445 194.14695312 103.60009766 194.22265625 C108.73195449 194.64479105 113.85310744 194.86580934 119 195 C120.03979004 195.03254883 121.07958008 195.06509766 122.15087891 195.09863281 C144.3593674 195.71320734 165.98631775 193.74437429 188 191 C188.693284 190.91569733 189.38656799 190.83139465 190.1008606 190.74453735 C197.35244468 189.86031839 204.38870299 188.86656723 211.4375 186.9375 C216.65951956 185.51818186 221.63447381 184.57636328 227 184 C224.71580854 186.28419146 223.36223101 186.65650083 220.29296875 187.55078125 C219.32568848 187.83453613 218.3584082 188.11829102 217.36181641 188.41064453 C216.31429199 188.70825684 215.26676758 189.00586914 214.1875 189.3125 C213.09872559 189.62300293 212.00995117 189.93350586 210.88818359 190.25341797 C207.5956302 191.18216064 204.29902375 192.09453517 201 193 C200.12843262 193.24186035 199.25686523 193.4837207 198.35888672 193.73291016 C173.96546697 200.38744685 147.67437177 204.10597179 122.40625 204.203125 C121.22067505 204.20882507 120.0351001 204.21452515 118.81359863 204.22039795 C116.30917232 204.22979827 113.80473392 204.23636203 111.30029297 204.24023438 C107.56584446 204.2498308 103.83197349 204.28085743 100.09765625 204.3125 C78.95170873 204.40595087 58.023603 202.75440844 37.25 198.6875 C36.14841553 198.47657715 35.04683105 198.2656543 33.91186523 198.04833984 C-7.30079898 189.93423592 -48.00772238 175.20229459 -79 146 C-79.76054688 145.31550781 -80.52109375 144.63101563 -81.3046875 143.92578125 C-93.48282561 132.52721253 -103.60028364 115.39015328 -104.30078125 98.44921875 C-104.54169483 79.13798791 -98.85223 62.68390173 -86 48 C-85.50886719 47.39027344 -85.01773438 46.78054687 -84.51171875 46.15234375 C-70.77520956 29.30568154 -22.57590287 -6.64810021 0 0 Z " fill="#D3A960" transform="translate(125,65)"/>
<path d="M0 0 C-2.95670218 1.00486895 -5.91561577 2.00306024 -8.875 3 C-9.71675781 3.28617188 -10.55851562 3.57234375 -11.42578125 3.8671875 C-12.23144531 4.13789063 -13.03710938 4.40859375 -13.8671875 4.6875 C-14.61081543 4.93886719 -15.35444336 5.19023437 -16.12060547 5.44921875 C-18 6 -18 6 -20 6 C-20 5.34 -20 4.68 -20 4 C-20.66 3.67 -21.32 3.34 -22 3 C-19.08559401 2.3013821 -16.16913913 1.6157969 -13.25 0.9375 C-12.425 0.73833984 -11.6 0.53917969 -10.75 0.33398438 C-9.55117188 0.05844727 -9.55117188 0.05844727 -8.328125 -0.22265625 C-7.5949707 -0.39547119 -6.86181641 -0.56828613 -6.10644531 -0.74633789 C-3.79867217 -1.02424428 -2.20083963 -0.69809241 0 0 Z " fill="#D9B06A" transform="translate(352,250)"/>
<path d="M0 0 C0.66 0.33 1.32 0.66 2 1 C-3.94 6.94 -9.88 12.88 -16 19 C-16.66 18.67 -17.32 18.34 -18 18 C-12.66852872 11.86633975 -7.24150573 6.20656218 -1 1 C-0.67 0.67 -0.34 0.34 0 0 Z " fill="#DBB655" transform="translate(54,98)"/>
</svg>
